<svg width="180" height="180" viewBox="0 0 180 180" fill="none" xmlns="http://www.w3.org/2000/svg">
<path d="M0 90C0 40.2944 40.2944 0 90 0C139.706 0 180 40.2944 180 90C180 139.706 139.706 180 90 180C40.2944 180 0 139.706 0 90Z" fill="#CE94DC"/>
<path d="M116.569 59.5869L116.588 59.8533L116.578 60.1283L116.537 60.4087L116.462 60.6911L116.355 60.972L116.213 61.2476L116.037 61.5142L115.828 61.7681L115.586 62.0055L115.312 62.2226L115.009 62.416L114.679 62.5821L114.323 62.7177L113.946 62.8199L113.55 62.886L113.139 62.9137L112.718 62.9009L112.29 62.846L111.859 62.748L111.432 62.6062L111.012 62.4203L110.604 62.1906L110.213 61.918L109.845 61.6036L109.503 61.2494L109.193 60.8577L108.918 60.4311L108.684 59.9731L108.494 59.4873L108.351 58.9778L108.258 58.4492L108.219 57.9062L108.236 57.3541L108.309 56.7982L108.441 56.2441L108.63 55.6975L108.879 55.1642L109.185 54.6501L109.547 54.161L109.964 53.7025L110.433 53.2801L110.95 52.8992L111.512 52.5647L112.114 52.2813L112.752 52.0533L113.42 51.8843L114.112 51.7778L114.822 51.7363L115.544 51.7621L116.27 51.8567L116.995 52.0208L117.709 52.2546L118.407 52.5576L119.081 52.9286L119.724 53.3655L120.329 53.8657L120.889 54.4258L121.397 55.0419L121.847 55.7091L122.234 56.4223L122.553 57.1756L122.799 57.9625L122.967 58.7763L123.054 59.6097L123.059 60.455L122.979 61.3044L122.812 62.1499L122.559 62.9831L122.221 63.7958L121.799 64.5799L121.294 65.3273L120.711 66.0299L120.053 66.6803L119.325 67.2711L118.533 67.7956L117.683 68.2474L116.782 68.6209L115.837 68.9109L114.856 69.1131L113.85 69.224L112.825 69.2408L111.792 69.1616L110.76 68.9853L109.74 68.7119L108.741 68.3423L107.772 67.8781L106.844 67.3221L105.966 66.6779L105.148 65.9502L104.397 65.1442L103.722 64.2664L103.132 63.3236L102.632 62.3237L102.229 61.2752L101.928 60.1871L101.734 59.069L101.651 57.931L101.681 56.7833L101.826 55.6366L102.085 54.5016" stroke="#404040" stroke-width="3.5" stroke-linecap="round" stroke-linejoin="round"/>
<circle cx="112" cy="60" r="20" fill="white"/>
<circle cx="110" cy="60" r="11" fill="#44403C"/>
<path d="M112 40C100.954 40 92 48.9543 92 60L132 60C132 48.9543 123.046 40 112 40Z" fill="#AD67BF"/>
<path d="M68 80C79.0457 80 88 71.0457 88 60H48C48 71.0457 56.9543 80 68 80Z" fill="white"/>
<circle cx="70" cy="60" r="11" fill="#44403C"/>
<path d="M68 40C56.9543 40 48 48.9543 48 60L88 60C88 48.9543 79.0457 40 68 40Z" fill="#AD67BF"/>
<path d="M97 92H83" stroke="#44403C" stroke-width="3" stroke-linecap="round"/>
<path d="M79 99C80.7934 97.6027 82 94.9912 82 92C82 89.0088 80.7934 86.3973 79 85" stroke="#44403C" stroke-width="3" stroke-linecap="round"/>
<path d="M101 99C99.2066 97.6027 98 94.9912 98 92C98 89.0088 99.2066 86.3973 101 85" stroke="#44403C" stroke-width="3" stroke-linecap="round"/>
</svg>
