<svg width="237" height="124" viewBox="0 0 237 124" fill="none" xmlns="http://www.w3.org/2000/svg">
<path d="M42.505 102V88.32H3.74501V74.64L40.339 22.2H59.605V73.5H69.523V88.32H59.605V102H42.505ZM21.871 73.5H43.645V41.01L21.871 73.5ZM204.367 102V88.32H165.607V74.64L202.201 22.2H221.467V73.5H231.385V88.32H221.467V102H204.367ZM183.733 73.5H205.507V41.01L183.733 73.5Z" fill="#D6D3D1"/>
<rect x="74" y="18" width="88" height="88" rx="44" fill="#D6D3D1"/>
<circle cx="128.755" cy="49.289" r="9.77778" fill="#FAFAF9"/>
<circle cx="123.867" cy="49.4" r="4.4" fill="#A8A29E"/>
<circle cx="107.247" cy="49.289" r="9.77778" fill="#FAFAF9"/>
<circle cx="112.134" cy="49.4" r="4.4" fill="#A8A29E"/>
<circle cx="118" cy="61.511" r="2.93333" fill="#A8A29E"/>
</svg>
