<svg width="51" height="24" viewBox="0 0 51 24" fill="none" xmlns="http://www.w3.org/2000/svg">
<path d="M9.07526 17.9823C8.15446 17.9823 7.29031 17.8106 6.48197 17.4682C5.67362 17.1258 4.96421 16.6531 4.35372 16.0519C3.74324 15.4507 3.26381 14.7506 2.91629 13.9524C2.56878 13.1542 2.39459 12.2994 2.39459 11.3879C2.39459 10.4764 2.56793 9.62153 2.91629 8.82333C3.26381 8.02514 3.74324 7.32502 4.35372 6.72384C4.96421 6.12266 5.67362 5.65084 6.48197 5.30755C7.28946 4.9651 8.15446 4.79346 9.07526 4.79346C9.99606 4.79346 10.872 4.9651 11.6753 5.30755C12.4786 5.65084 13.1855 6.12266 13.7959 6.72384C14.4064 7.32502 14.8859 8.02514 15.2334 8.82333C15.5809 9.62237 15.7551 10.4772 15.7551 11.3879C15.7551 12.2985 15.5809 13.1542 15.2334 13.9524C14.8859 14.7515 14.4064 15.4507 13.7959 16.0519C13.1855 16.6531 12.4786 17.1258 11.6753 17.4682C10.872 17.8106 10.0054 17.9823 9.07526 17.9823ZM9.07526 15.7695C9.87345 15.7695 10.5972 15.5725 11.2458 15.1776C11.8943 14.7827 12.4084 14.2526 12.7889 13.5855C13.1694 12.9183 13.3596 12.181 13.3596 11.3727C13.3596 10.5643 13.1694 9.83207 12.7889 9.17423C12.4084 8.5164 11.8943 7.99047 11.2458 7.5956C10.5972 7.20073 9.8743 7.00372 9.07526 7.00372C8.27622 7.00372 7.5389 7.20073 6.89121 7.5956C6.24268 7.99047 5.73112 8.51894 5.35485 9.181C4.97858 9.84306 4.79087 10.5787 4.79087 11.3862C4.79087 12.1937 4.97858 12.9293 5.35485 13.5914C5.73027 14.2534 6.24268 14.7819 6.89121 15.1768C7.53974 15.5716 8.26776 15.7687 9.07526 15.7687V15.7695Z" fill="#4B4A49"/>
<path d="M21.4913 17.9822C20.6551 17.9822 19.8915 17.7827 19.2016 17.3836C18.5107 16.9845 17.9637 16.4442 17.5595 15.7626C17.1553 15.082 16.9532 14.332 16.9532 13.5152C16.9532 12.6984 17.1553 11.923 17.5595 11.2466C17.9637 10.5701 18.5107 10.0298 19.2016 9.62567C19.8924 9.22149 20.6508 9.01941 21.4778 9.01941C22.3047 9.01941 23.0885 9.21896 23.7751 9.61806C24.4609 10.0172 25.0079 10.5549 25.4172 11.2314C25.8256 11.9078 26.0302 12.6595 26.0302 13.4864C26.0302 14.3134 25.8256 15.0676 25.4172 15.7483C25.0088 16.4298 24.4609 16.9718 23.7751 17.3759C23.0894 17.7801 22.3284 17.9822 21.4921 17.9822H21.4913ZM21.4913 15.9808C21.942 15.9808 22.3512 15.8683 22.7173 15.6426C23.0835 15.4168 23.3752 15.1166 23.5908 14.7404C23.8064 14.365 23.9146 13.9515 23.9146 13.5C23.9146 13.0484 23.8039 12.624 23.5832 12.2528C23.3625 11.8816 23.0691 11.5831 22.7021 11.3582C22.336 11.1324 21.9268 11.02 21.4761 11.02C21.0254 11.02 20.6162 11.1324 20.25 11.3582C19.8839 11.584 19.5922 11.8824 19.3766 12.2528C19.1601 12.624 19.0527 13.04 19.0527 13.5C19.0527 13.9599 19.161 14.3641 19.3766 14.7404C19.5922 15.1166 19.8839 15.4168 20.25 15.6426C20.6162 15.8683 21.0296 15.9808 21.4905 15.9808H21.4913Z" fill="#4B4A49"/>
<path d="M27.2266 21.4347V9.44229C27.2266 9.34928 27.3027 9.27318 27.3957 9.27318H28.9879C29.0809 9.27318 29.157 9.34928 29.157 9.44229V10.1754C29.4952 9.83716 29.8969 9.56913 30.3619 9.37211C30.827 9.1751 31.3318 9.07617 31.8771 9.07617C32.666 9.07617 33.3805 9.27572 34.0189 9.67482C34.6573 10.0739 35.1672 10.6075 35.5477 11.2746C35.9281 11.9417 36.1184 12.6841 36.1184 13.5009C36.1184 14.3177 35.9281 15.0491 35.5477 15.7205C35.1672 16.3927 34.6573 16.9279 34.0189 17.327C33.3797 17.7261 32.666 17.9257 31.8771 17.9257C31.3977 17.9257 30.9538 17.8504 30.5454 17.6999C30.137 17.5494 29.7675 17.3431 29.4394 17.0801V21.4347C29.4394 21.5277 29.3633 21.6038 29.2703 21.6038H27.3957C27.3027 21.6038 27.2266 21.5277 27.2266 21.4347ZM31.6235 15.9665C32.0648 15.9665 32.4665 15.8566 32.8284 15.6351C33.1903 15.4144 33.4786 15.1184 33.6951 14.7473C33.9107 14.3761 34.0189 13.9609 34.0189 13.5001C34.0189 13.0393 33.9107 12.6385 33.6951 12.2673C33.4786 11.8961 33.1903 11.5976 32.8284 11.3727C32.4665 11.1469 32.0606 11.0345 31.6091 11.0345C31.1576 11.0345 30.7661 11.1452 30.4042 11.3659C30.0423 11.5866 29.7531 11.8825 29.5375 12.2537C29.321 12.6249 29.2137 13.0409 29.2137 13.5009C29.2137 13.9609 29.3219 14.3634 29.5375 14.7337C29.7531 15.1049 30.0423 15.4034 30.4042 15.6283C30.7661 15.8541 31.1719 15.9665 31.6235 15.9665Z" fill="#4B4A49"/>
<path d="M45.1759 7.01387C45.1649 6.93439 45.1531 6.83969 45.1421 6.72892C45.1311 6.61816 45.1252 6.50908 45.1252 6.4017C45.1252 6.18016 45.1607 5.97216 45.2317 5.77684C45.3027 5.58152 45.3991 5.41071 45.5209 5.26613C45.6427 5.12154 45.7856 5.00654 45.9504 4.92199C46.1145 4.83659 46.2937 4.79431 46.4865 4.79431C46.6793 4.79431 46.8611 4.83574 47.031 4.91776C47.201 4.99978 47.3498 5.11308 47.4775 5.25767C47.6052 5.40226 47.7041 5.57137 47.7751 5.76331C47.8462 5.95609 47.8817 6.16325 47.8817 6.38394C47.8817 6.49724 47.8774 6.6097 47.869 6.71962C47.8605 6.83039 47.8504 6.93608 47.8394 7.03839L47.0437 13.1373C47.0074 13.4138 46.7723 13.621 46.4933 13.621C46.2134 13.621 45.9767 13.4121 45.942 13.1339L45.1776 7.01218L45.1759 7.01387Z" fill="#4B4A49"/>
<path d="M46.5025 17.9822C47.2497 17.9822 47.8554 17.3765 47.8554 16.6294C47.8554 15.8822 47.2497 15.2765 46.5025 15.2765C45.7554 15.2765 45.1497 15.8822 45.1497 16.6294C45.1497 17.3765 45.7554 17.9822 46.5025 17.9822Z" fill="#4B4A49"/>
<path d="M40.4019 17.9822C39.8549 17.9822 39.2934 17.8884 38.7176 17.7015C38.1807 17.5273 37.7444 17.2838 37.407 16.9718C37.3622 16.9304 37.3453 16.8661 37.3605 16.8061L37.8239 15.0456C37.8585 14.9129 38.0268 14.8757 38.1164 14.9797C38.3659 15.2697 38.6745 15.5251 39.0415 15.7432C39.5167 16.0265 40.0079 16.1677 40.5169 16.1677C40.9008 16.1677 41.1815 16.0882 41.3591 15.9301C41.5367 15.772 41.6254 15.5775 41.6254 15.3467C41.6254 15.0879 41.5341 14.8977 41.3515 14.7776C41.1688 14.6575 40.9862 14.5645 40.8044 14.4969L39.6097 14.0504C39.3602 13.9447 39.0668 13.8035 38.7311 13.626C38.3955 13.4484 38.1046 13.1939 37.8602 12.8633C37.6159 12.5318 37.4933 12.0981 37.4933 11.5603C37.4933 11.0707 37.6133 10.62 37.8535 10.2066C38.0936 9.79395 38.4411 9.45996 38.8969 9.20629C39.3526 8.95178 39.9022 8.82495 40.5457 8.82495C41.1215 8.82495 41.6711 8.92388 42.1945 9.12005C42.6756 9.30099 43.0502 9.52084 43.3157 9.77957C43.358 9.82101 43.3732 9.88188 43.3588 9.93938L42.9318 11.6474C42.8988 11.7784 42.7314 11.8216 42.6426 11.7193C42.3805 11.4191 42.0795 11.1773 41.7404 10.9921C41.3084 10.757 40.8907 10.6395 40.4882 10.6395C40.1525 10.6395 39.9031 10.7139 39.7399 10.8627C39.5767 11.0115 39.4955 11.1866 39.4955 11.3878C39.4955 11.5417 39.553 11.6854 39.668 11.8199C39.783 11.9543 39.9707 12.0693 40.2294 12.1657L41.3523 12.5978C41.65 12.7035 41.9763 12.8498 42.3315 13.0366C42.6866 13.2235 42.991 13.4856 43.2455 13.8213C43.5 14.1578 43.6269 14.6178 43.6269 15.2038C43.6269 16.029 43.3267 16.6987 42.7272 17.2119C42.1277 17.7252 41.3523 17.9822 40.4019 17.9822Z" fill="#4B4A49"/>
</svg>
